<?xml version="1.0" standalone="no"?>
<!DOCTYPE svg PUBLIC "-//W3C//DTD SVG 1.1//EN" "http://www.w3.org/Graphics/SVG/1.1/DTD/svg11.dtd">
<svg xmlns="http://www.w3.org/2000/svg">
<defs >
<font id="Georama" horiz-adv-x="244" ><font-face
    font-family="Georama ExtraCondensed Thin Medium"
    units-per-em="1000"
    panose-1="2 11 0 0 3 0 0 2 0 4"
    ascent="968"
    descent="-226"
    alphabetic="0" />
<glyph unicode=" " horiz-adv-x="268" />
<glyph unicode="!" horiz-adv-x="229" d="M68 262L138 740H238L155 262H68ZM21 37Q22 61 28 78T50 105T90 115Q116 115 127 106T139 74Q138 56 134 42T122 18T101 2T69 -4Q43 -4 32 6T21 37Z" />
<glyph unicode="&quot;" horiz-adv-x="332" d="M72 427L110 700H201L152 427H72ZM227 427L265 700H356L307 427H227Z" />
<glyph unicode="#" horiz-adv-x="610" d="M126 447L138 526H227L280 700H369L316 526H424L477 700H565L512 526H580L567 447H491L429 249H508L496 170H407L356 0H268L318 170H210L160 0H70L122 170H54L67 249H143L205 447H126ZM294 447L232 249H340L402 447H294Z" />
<glyph unicode="$" horiz-adv-x="610" d="M570 678L538 592Q504 605 463 613T373 621Q352 621 330 616T289 602T253 579T229 548T220 508Q220 485 233 468T268 436T318 408T374 382T431 351T481 314T516 266T529 202Q529 165 517 135T484 80T433 38T369 9T297
-6L281 -105H202L217 -8Q178 -6 143 0T77 15T24 32L56 117Q74 110 98 103T149 90T205 81T262 77Q286 77 309 81T353 95T389 118T414 149T423 189Q423 212 410 229T375 261T326 289T269 316T212 347T162 385T126 434T113 499Q113 535 125 565T158 619T208 661T270
690T340 705L357 804H436L421 708Q455 707 483 702T533 690T570 678Z" />
<glyph unicode="%" horiz-adv-x="885" d="M77 710Q77 764 89 810T126 892T183 947T259 967Q307 967 341 950T393 899T411 813Q411 759 399 712T362 630T305 575T229 555Q181 555 147 572T95 624T77 710ZM263 914Q238 914 217 896T181 847T157 776T149 693Q149
649 168 628T225 607Q250 607 271 625T307 675T330 747T339 829Q339 872 320 893T263 914ZM249 -8L179 -3L669 733L740 728L249 -8ZM499 147Q499 201 511 247T548 329T605 384T681 404Q729 404 763 387T815 336T833 250Q833 196 821 149T784 67T727 12T651 -8Q603
-8 569 9T517 61T499 147ZM685 351Q660 351 639 333T603 284T579 213T571 130Q571 86 590 65T647 44Q672 44 693 62T729 112T752 184T761 266Q761 309 742 330T685 351Z" />
<glyph unicode="&amp;" horiz-adv-x="669" d="M265 -10Q185 -10 132 13T53 77T26 171Q26 236 54 284T131 363T242 402Q209 413 185 432T148 478T135 538Q135 584 159 623T230 686T341 710Q376 710 407 704T466 685T517 654L468 590Q451 604 432 613T393 627T350
632Q315 632 289 618T249 579T235 526Q235 494 249 472T290 438T353 424L366 422L352 360H328Q288 360 252 348T188 314T145 258T129 184Q129 151 145 126T195 86T278 72Q320 72 358 88T426 136T472 207T487 295L565 296Q562 230 539 174T476 77T382 13T265 -10ZM389
234L329 249Q332 278 345 301T381 337T436 351Q452 351 466 348T494 340T522 333T553 330Q584 330 602 345T622 392L685 388Q686 355 674 328T639 284T583 268Q564 268 548 271T515 278T481 285T445 289Q423 289 408 275T389 234Z" />
<glyph unicode="&apos;" horiz-adv-x="177" d="M72 427L110 700H201L152 427H72Z" />
<glyph unicode="(" horiz-adv-x="308" d="M52 60Q52 120 60 191T84 337T124 480T183 607T260 702T358 750L349 669Q316 660 287 625T234 537T192 422T160 294T141 168T134 62Q134 7 144 -35T173 -104T222 -142L205 -220Q165 -211 136 -187T89 -126T61 -42T52 60Z" />
<glyph unicode=")" horiz-adv-x="308" d="M253 470Q253 407 245 335T220 189T178 47T118 -78T41 -172T-54 -220L-45 -140Q-11 -130 18 -94T71 -5T114 111T145 240T164 365T171 471Q171 523 162 563T134 630T84 670L100 750Q154 738 187 700T237 603T253 470Z" />
<glyph unicode="*" horiz-adv-x="332" d="M110 366L76 395L155 507L61 555L83 602L183 568L209 698H257L241 567L352 602L359 555L248 506L291 394L248 366L196 467L110 366Z" />
<glyph unicode="+" horiz-adv-x="460" d="M159 98L185 261H47L61 348H198L225 512H312L286 348H423L409 261H272L246 98H159Z" />
<glyph unicode="," horiz-adv-x="193" d="M17 66L109 71Q111 62 112 53T113 34Q113 6 105 -25T82 -86T46 -145T-4 -195L-74 -173Q-49 -152 -30 -121T1 -54T16 12Q17 23 17 37T17 66Z" />
<glyph unicode="-" horiz-adv-x="321" d="M36 242L51 333H290L274 242H36Z" />
<glyph unicode="." horiz-adv-x="195" d="M4 37Q5 61 11 78T33 106T73 116Q99 116 110 107T121 76Q121 57 117 43T105 19T84 2T52 -4Q26 -4 15 6T4 37Z" />
<glyph unicode="/" horiz-adv-x="363" d="M-72 -210L347 740H432L12 -210H-72Z" />
<glyph unicode="0" horiz-adv-x="611" d="M274 -12Q193 -12 142 18T68 106T44 246Q44 303 52 359T78 467T121 563T183 641T262 692T361 711Q442 711 492 681T566 594T590 454Q590 396 581 339T555 231T511 134T449 57T371 7T274 -12ZM281 77Q317 77 346 93T397
138T436 203T463 283T479 369T485 454Q484 506 472 544T432 602T354 623Q318 623 289 607T237 563T198 498T171 420T155 334T150 248Q150 196 162 158T203 98T281 77Z" />
<glyph unicode="1" horiz-adv-x="610" d="M52 0L66 87H257L335 578L135 481L124 573L407 702H459L360 87H527L513 0H52Z" />
<glyph unicode="2" horiz-adv-x="611" d="M47 69Q107 112 162 158T263 251T344 344T398 436T418 523Q418 552 405 573T368 605T312 617Q287 617 261 611T208 594T154 567L128 646Q158 666 194 680T268 702T343 710Q382 710 415 700T472 668T510 617T523 549Q523
497 507 448T461 353T391 262T303 173T204 85H518L504 0H38L47 69Z" />
<glyph unicode="3" horiz-adv-x="611" d="M10 49L52 124Q77 109 106 99T169 84T243 79Q298 79 339 95T403 144T426 221Q426 272 395 297T297 323H183L195 399H298Q334 399 361 408T408 433T438 472T448 521Q448 569 413 595T314 622Q286 622 258 618T203 606T152
584L130 663Q158 681 192 691T264 705T336 710Q442 710 496 668T550 551Q550 504 533 469T487 409T422 372Q454 364 478 346T515 298T528 224Q528 177 513 140T469 74T404 27T325 -1T237 -10Q168 -10 112 5T10 49Z" />
<glyph unicode="4" horiz-adv-x="611" d="M18 148L27 220L447 702L534 698L459 229H569L556 148H446L422 -2H317L341 148H18ZM130 229H356L409 552L130 229Z" />
<glyph unicode="5" horiz-adv-x="611" d="M24 48L61 129Q82 115 109 104T169 85T241 78Q294 78 330 92T389 130T422 182T433 236Q433 268 421 288T383 319T313 330H115L108 341L203 700H573L558 609H264L214 413H357Q450 413 493 373T536 254Q536 205 520 158T469
73T376 12T237 -10Q192 -10 154 -4T84 15T24 48Z" />
<glyph unicode="6" horiz-adv-x="611" d="M305 -10Q225 -10 169 18T83 104T53 250Q53 332 69 403T118 530T196 627T300 688T429 710Q484 710 530 700T606 672L571 592Q540 606 505 613T437 620Q377 620 329 599T245 539Q199 490 176 415T152 251Q152 192 170 153T224
95T311 76Q356 76 391 95T445 150T465 232Q465 272 451 298T408 339T331 354Q296 354 262 345T197 319T145 276L149 356Q177 385 211 403T284 429T360 437Q423 437 468 415T539 351T564 245Q564 195 551 154T514 82T458 31T386 0T305 -10Z" />
<glyph unicode="7" horiz-adv-x="610" d="M140 0Q149 54 163 102T200 197T254 296T327 407L466 609H110L124 700H598L587 627L433 397Q390 330 358 278T305 179T271 90T249 0H140Z" />
<glyph unicode="8" horiz-adv-x="611" d="M279 -10Q192 -10 137 13T55 77T29 169Q29 220 51 262T114 335T205 380L275 343Q233 329 201 308T151 256T133 184Q133 132 171 101T289 69Q323 69 352 77T402 99T434 137T446 192Q446 225 432 247T394 283T339 309T277
332T215 356T160 390T122 440T107 515Q107 564 126 601T179 662T259 698T359 710Q438 710 485 689T553 631T575 549Q575 499 556 463T505 400T430 351L363 383Q398 402 423 422T462 470T476 533Q476 573 449 600T353 627Q320 627 293 620T247 601T218 570T208 528Q208
497 222 476T261 441T316 414T379 391T443 365T499 329T538 278T552 205Q552 151 532 111T476 44T389 4T279 -10Z" />
<glyph unicode="9" horiz-adv-x="611" d="M332 710Q451 710 517 646T583 450Q583 368 567 297T518 170T441 73T336 12T207 -10Q152 -10 106 0T30 28L66 108Q96 95 133 86T202 77Q262 77 310 98T394 159Q440 207 462 284T485 449Q485 509 467 547T413 605T326 624Q280
624 246 605T192 551T172 468Q172 429 185 402T228 361T305 346Q340 346 374 355T439 381T491 424L487 344Q460 315 425 298T352 272T277 263Q214 263 168 285T98 350T73 455Q73 539 107 596T201 681T332 710Z" />
<glyph unicode=":" horiz-adv-x="195" d="M5 37Q6 61 12 78T34 106T74 116Q100 116 111 107T122 76Q122 57 118 43T106 19T85 2T53 -4Q27 -4 16 6T5 37ZM72 464Q73 488 79 505T101 533T141 543Q167 543 178 534T189 503Q189 484 185 470T173 446T152 429T120 423Q94
423 83 433T72 464Z" />
<glyph unicode=";" horiz-adv-x="195" d="M17 66L109 71Q111 62 112 53T113 34Q113 6 105 -25T82 -86T46 -145T-4 -195L-74 -173Q-49 -152 -30 -121T1 -54T16 12Q17 23 17 37T17 66ZM72 464Q73 488 79 505T101 533T141 543Q167 543 178 534T189 503Q189 484 185
470T173 446T152 429T120 423Q94 423 83 433T72 464Z" />
<glyph unicode="&lt;" horiz-adv-x="460" d="M384 78L41 256L55 347L455 524L442 437L135 300L398 163L384 78Z" />
<glyph unicode="=" horiz-adv-x="450" d="M394 236L381 148H30L44 236H394ZM428 454L414 366H64L77 454H428Z" />
<glyph unicode="&gt;" horiz-adv-x="460" d="M413 255L13 77L27 164L333 300L70 437L84 521L427 344L413 255Z" />
<glyph unicode="?" horiz-adv-x="434" d="M151 261L167 379Q217 398 251 419T307 462T337 511T347 568Q347 598 335 616T302 644T253 654Q215 654 175 641T93 601L74 685Q104 706 139 720T213 742T287 750Q322 750 353 741T407 714T445 665T459 593Q459 525 433
476T360 392T248 329L237 261H151ZM104 36Q105 60 112 77T135 105T174 115Q200 115 211 105T221 74Q221 50 214 33T192 6T152 -4Q126 -4 115 5T104 36Z" />
<glyph unicode="@" horiz-adv-x="750" d="M307 -122Q220 -122 157 -88T61 9T27 162Q27 252 47 335T105 488T196 610T316 690T460 719Q544 719 606 688T702 596T736 447Q736 393 727 338T701 233T660 145T605 84T538 61Q515 61 499 68T473 88T457 118T448 156Q430
127 405 107T350 76T289 65Q236 65 207 95T178 187Q178 237 190 287T225 384T280 467T352 525T439 547Q463 547 487 543T537 533T586 516L521 231Q515 203 514 178T522 138T554 122Q577 122 596 141T632 192T660 266T678 352T685 440Q685 518 658 569T578 645T450
671Q385 671 328 644T225 570T147 460T97 324T79 172Q79 91 107 36T188 -46T311 -74Q356 -74 401 -61T488 -24L500 -64Q472 -83 440 -95T374 -115T307 -122ZM329 143Q351 143 373 155T413 189T443 242L495 467Q478 473 462 476T427 479Q403 479 380 462T337 417T302
354T277 282T268 211Q268 178 284 161T329 143Z" />
<glyph unicode="A" horiz-adv-x="583" d="M-33 0L292 707H422L528 0H415L391 168H157L81 0H-33ZM190 253H386L343 612L190 253Z" />
<glyph unicode="B" horiz-adv-x="590" d="M22 1L132 698Q185 703 226 705T300 709T356 710Q433 710 481 696T551 652T574 575Q574 542 565 511T538 453T496 406T440 374Q475 367 500 349T539 303T553 238Q553 190 538 151T495 81T431 31T350 0T257 -10Q228 -10
201 -9T147 -7T89 -3T22 1ZM188 395H341Q365 395 388 406T429 438T459 486T470 543Q470 575 457 592T416 617T344 625Q323 625 304 624T265 622T222 619L188 395ZM175 317L137 81Q156 80 171 79T201 76T231 75T262 74Q294 74 322 80T373 99T412 131T437 174T446
229Q446 253 437 270T413 297T378 312T336 317H175Z" />
<glyph unicode="C" horiz-adv-x="568" d="M328 -10Q236 -10 173 16T76 97T43 236Q43 343 68 430T139 580T251 676T400 710Q435 710 467 707T530 698T592 679L565 596Q540 604 514 609T461 616T405 619Q345 619 299 592T220 514T170 396T152 249Q152 189 175 152T241
98T347 81Q389 81 427 86T499 100L508 15Q467 2 423 -4T328 -10Z" />
<glyph unicode="D" horiz-adv-x="637" d="M239 -10Q194 -10 158 -9T88 -5T20 -1L132 701Q185 706 231 708T325 710Q378 710 422 700T502 668T562 614T600 536T613 432Q613 328 587 246T512 106T394 20T239 -10ZM247 73Q293 73 333 88T405 132T460 204T495 304T507
430Q507 471 498 503T473 558T434 595T384 617T327 624Q308 624 289 624T253 622T223 620L137 77Q157 76 173 75T207 74T247 73Z" />
<glyph unicode="E" horiz-adv-x="536" d="M20 0L131 700H561L546 609H221L187 405H491L476 314H172L138 91H480L465 0H20Z" />
<glyph unicode="F" horiz-adv-x="509" d="M20 0L132 700H558L543 610H221L182 365H461L446 275H168L124 0H20Z" />
<glyph unicode="G" horiz-adv-x="596" d="M308 -10Q247 -10 198 5T114 50T61 127T42 234Q42 313 56 384T101 515T174 618T276 686T404 710Q458 710 506 703T597 681L565 598Q539 605 514 610T463 618T406 621Q346 621 298 593T216 512T164 392T145 242Q145 197
157 165T193 113T248 83T319 73Q353 73 381 78T429 91L460 288H318L331 367H566L511 29Q476 12 424 1T308 -10Z" />
<glyph unicode="H" horiz-adv-x="644" d="M20 0L131 700H236L181 356H490L545 700H647L535 0H433L475 266H166L125 0H20Z" />
<glyph unicode="I" horiz-adv-x="233" d="M20 0L131 700H236L124 0H20Z" />
<glyph unicode="J" horiz-adv-x="456" d="M-28 21L0 110Q22 104 43 98T88 89T137 85Q177 85 207 98T258 143T287 226L348 610H106L120 700H467L388 203Q376 133 346 86T268 14T150 -10Q114 -10 83 -6T24 5T-28 21Z" />
<glyph unicode="K" horiz-adv-x="590" d="M20 0L132 700H236L124 0H20ZM505 -10Q480 -10 457 -1T410 29T357 85L157 330L174 456L419 175Q445 145 464 129T501 107T535 100Q539 100 542 100T550 101L539 -4Q536 -5 530 -6T517 -9T505 -10ZM282 298L227 365Q254
383 286 409T352 467T420 536T485 617T545 709L624 664Q600 616 569 572T503 488T430 414T355 350T282 298Z" />
<glyph unicode="L" horiz-adv-x="489" d="M20 0L131 700H236L139 90H445L430 0H20Z" />
<glyph unicode="M" horiz-adv-x="724" d="M20 0L132 700H237L369 342L615 700H727L615 0H519L605 538L375 211H325L201 538L117 0H20Z" />
<glyph unicode="N" horiz-adv-x="635" d="M20 0L132 702H230L459 165L544 700H638L526 -2H430L198 526L114 0H20Z" />
<glyph unicode="O" horiz-adv-x="654" d="M302 -7Q180 -7 115 66T50 280Q50 341 59 396T87 498T133 584T197 650T278 692T376 707Q498 707 563 634T628 420Q628 360 619 305T591 202T545 116T482 50T400 8T302 -7ZM310 81Q347 81 377 94T430 131T471 187T499 257T516
338T522 425Q522 529 480 574T369 619Q332 619 302 606T248 569T207 513T179 443T163 362T157 275Q157 171 198 126T310 81Z" />
<glyph unicode="P" horiz-adv-x="594" d="M20 0L132 702Q173 704 205 705T262 708T307 709T340 710Q433 710 490 689T573 623T600 512Q600 441 581 387T524 297T429 242T295 224Q269 224 249 224T209 225T161 227L124 0H20ZM223 619L174 314Q200 313 219 312T256
311T292 310Q346 310 384 323T447 360T483 419T495 496Q495 541 480 569T430 610T337 624Q325 624 314 624T289 623T260 622T223 619Z" />
<glyph unicode="Q" horiz-adv-x="654" d="M458 -190Q426 -190 396 -180T340 -146T298 -86T273 5L364 13Q371 -27 388 -52T430 -90T484 -102Q520 -102 549 -89L546 -172Q526 -181 504 -185T458 -190ZM302 -7Q180 -7 115 66T50 280Q50 341 59 396T87 498T133 584T197
650T278 692T376 707Q498 707 563 634T628 420Q628 360 619 305T591 202T545 116T482 50T400 8T302 -7ZM310 81Q347 81 377 94T430 131T471 187T499 257T516 338T522 425Q522 529 480 574T369 619Q332 619 302 606T248 569T207 513T179 443T163 362T157 275Q157
171 198 126T310 81Z" />
<glyph unicode="R" horiz-adv-x="614" d="M20 0L132 701Q176 704 213 706T282 709T345 710Q414 710 462 697T540 659T582 598T596 516Q596 437 565 382T476 298T341 268L322 260Q294 261 268 261T217 261T167 262L125 0H20ZM534 -10Q509 -10 485 -2T438 27T391
81T342 164T291 280L394 304Q412 256 430 221T466 160T500 120T532 99T562 92Q565 92 569 92T577 93L567 -4Q562 -6 551 -8T534 -10ZM318 345Q372 345 410 363T467 417T487 509Q487 538 480 559T457 596T412 618T342 626Q324 626 311 626T285 626T258 624T223 622L180
348Q200 347 220 346T264 345T318 345Z" />
<glyph unicode="S" horiz-adv-x="551" d="M549 677L515 590Q476 604 434 611T342 619Q294 619 258 607T203 570T183 514Q183 488 197 469T234 435T286 408T346 382T406 353T458 316T494 265T508 196Q508 134 477 88T384 16T228 -10Q162 -10 100 0T-15 32L18 119Q53
106 90 97T165 83T242 78Q294 78 329 91T382 128T401 183Q401 211 388 231T351 265T298 292T238 318T178 346T126 383T89 436T75 508Q75 570 107 615T203 685T357 710Q392 710 423 706T486 696T549 677Z" />
<glyph unicode="T" horiz-adv-x="518" d="M561 614H364L267 0H163L260 614H63L78 700H576L561 614Z" />
<glyph unicode="U" horiz-adv-x="628" d="M267 -10Q156 -10 99 32T42 157Q42 169 42 179T46 207L124 700H227L148 203Q139 143 174 111T283 78Q436 78 457 209L535 700H639L561 214Q543 100 471 45T267 -10Z" />
<glyph unicode="V" horiz-adv-x="560" d="M291 0H169L70 701L183 702L249 102Q296 191 332 261T396 387T443 486T475 562T493 624T499 676Q499 682 499 687T497 700H606Q606 693 606 686T607 672Q604 644 597 614T575 547T538 460T481 346T400 196T291 0Z" />
<glyph unicode="W" horiz-adv-x="816" d="M601 0H478L447 508Q403 388 352 260T247 0H125L72 700H181L212 121Q237 183 262 247T312 379T361 513T408 647H526L553 112Q602 222 636 302T692 440T728 539T748 613T756 676Q756 683 756 688T754 700H859Q861 695 861
689T861 676Q860 652 853 617T828 532T781 408T707 235T601 0Z" />
<glyph unicode="X" horiz-adv-x="569" d="M410 -4L278 290Q245 255 215 219T162 145T124 71T109 0H-9Q-8 41 13 87T70 183T150 279T239 369L80 700L195 704L318 428Q353 463 381 497T431 566T466 635T483 702L600 700Q593 666 578 632T540 563T489 494T426 425T353
352L527 1L410 -4Z" />
<glyph unicode="Y" horiz-adv-x="536" d="M176 0L219 269L68 700L183 703L286 352Q328 399 358 439T410 517T445 591T470 667Q473 677 475 685T480 704L594 700Q592 691 590 682T584 663Q572 626 557 591T520 519T471 445T407 363T323 269L278 0H176Z" />
<glyph unicode="Z" horiz-adv-x="537" d="M-22 0L-8 82L432 613H96L110 700H568L555 616L113 87H489L475 0H-22Z" />
<glyph unicode="[" horiz-adv-x="308" d="M90 -134H226L213 -210H-3L149 740H366L353 665H218L90 -134Z" />
<glyph unicode="\" horiz-adv-x="370" d="M159 740L323 -210H244L79 740H159Z" />
<glyph unicode="]" horiz-adv-x="308" d="M-48 -134H87L215 664H79L92 740H308L155 -210H-60L-48 -134Z" />
<glyph unicode="^" horiz-adv-x="459" d="M42 256L252 706H341L411 256H334L281 604L120 256H42Z" />
<glyph unicode="_" horiz-adv-x="729" d="M-61 -168L-48 -84H663L649 -168H-61Z" />
<glyph unicode="`" horiz-adv-x="351" d="M225 596L132 790H229L303 596H225Z" />
<glyph unicode="a" horiz-adv-x="525" d="M418 -10Q399 -10 383 -4T355 14T336 42Q314 27 290 15T238 -3T182 -10Q134 -10 99 11T44 73T25 176Q25 293 61 376T164 504T322 549Q345 549 370 547T418 540T463 529T501 516Q486 419 475 351T457 237T445 165T439 125T437
110Q437 94 443 87T463 79Q470 79 476 80T489 82L485 4Q472 -2 455 -6T418 -10ZM333 111L387 452Q372 461 352 464T310 467Q258 467 217 431T153 334T129 193Q129 136 155 107T224 78Q242 78 261 82T300 94T333 111Z" />
<glyph unicode="b" horiz-adv-x="520" d="M235 740L196 495Q234 520 271 534T350 549Q399 549 431 528T479 467T496 367Q496 288 476 220T418 100T324 19T200 -10Q145 -10 100 -2T19 15L133 740H235ZM302 460Q274 460 244 449T184 417L131 82Q146 77 166 74T209
70Q250 70 284 93T342 155T380 243T393 343Q393 397 372 428T302 460Z" />
<glyph unicode="c" horiz-adv-x="451" d="M231 -10Q163 -10 118 13T49 78T25 180Q25 261 44 328T101 445T193 522T314 549Q340 549 365 547T415 540T462 528L434 443Q399 453 370 456T311 459Q271 459 238 439T180 383T141 299T127 198Q127 160 143 133T189 93T258
79Q282 79 303 80T344 86T385 95L395 15Q372 8 346 2T290 -7T231 -10Z" />
<glyph unicode="d" horiz-adv-x="527" d="M418 -10Q397 -10 381 -4T353 13T334 41Q315 28 290 16T237 -3T182 -10Q135 -10 99 9T44 70T24 172Q24 258 45 327T102 446T188 522T296 549Q328 549 353 545T399 534L432 740H534Q527 699 520 651T505 550T488 446T473
346T458 255T446 180T439 128T436 106Q436 93 442 86T462 79Q468 79 474 79T487 82L484 4Q470 -3 452 -6T418 -10ZM221 79Q249 79 279 87T332 110L387 455Q370 461 351 464T306 467Q268 467 236 444T179 381T141 289T128 180Q128 148 139 125T172 91T221 79Z" />
<glyph unicode="e" horiz-adv-x="488" d="M111 295Q138 293 167 295T226 302Q300 314 341 340T383 411Q383 440 365 454T309 469Q256 469 215 437T151 347T128 211Q128 166 142 136T185 91T256 76Q278 76 303 79T356 90T412 109L427 26Q385 9 336 0T239 -10Q171
-10 124 15T52 87T27 201Q27 276 47 340T105 450T200 523T328 549Q374 549 409 534T463 492T483 425Q483 352 422 302T251 233Q211 226 174 225T104 225L111 295Z" />
<glyph unicode="f" horiz-adv-x="334" d="M-20 -220Q-42 -220 -61 -217T-100 -206L-78 -125Q-66 -129 -57 -130T-38 -132Q-15 -132 0 -119T26 -80T43 -12L110 415H35L47 487L123 496Q143 627 197 688T339 750Q374 750 405 744T467 726L440 645Q426 650 411 653T380
658T348 660Q297 660 268 622T224 496H364L351 415H212L143 -18Q133 -86 112 -131T59 -198T-20 -220Z" />
<glyph unicode="g" horiz-adv-x="519" d="M-6 -185L21 -106Q55 -119 94 -126T170 -134Q212 -134 241 -120T289 -75T315 5L320 37Q299 26 274 18T223 5T178 0Q128 0 93 21T41 79T24 167Q24 245 41 314T96 435T190 518T326 549Q347 549 371 547T419 541T463 532T499
521L418 9Q400 -106 341 -163T178 -220Q129 -220 82 -211T-6 -185ZM386 455Q372 460 355 464T310 469Q269 469 236 445T178 382T141 294T127 196Q127 138 154 111T224 84Q241 84 260 89T299 101T332 119L386 455Z" />
<glyph unicode="h" horiz-adv-x="527" d="M441 106Q441 92 447 86T467 79Q473 79 479 80T493 84L489 3Q475 -4 457 -7T421 -10Q396 -10 376 -1T345 26T333 68Q333 78 336 103T345 162T356 234T368 305T376 364T380 400Q380 426 366 443T313 461Q292 461 271 456T228
441T184 420L118 0H15L133 740H235L196 496Q226 513 253 524T309 542T368 549Q410 549 436 535T475 496T488 438Q488 427 485 401T476 340T464 268T453 196T445 138T441 106Z" />
<glyph unicode="i" horiz-adv-x="221" d="M16 0L101 539H203L118 0H16ZM185 744Q212 744 224 735T237 704Q236 680 228 664T205 639T165 630Q140 630 127 640T114 671Q115 695 122 711T144 735T185 744Z" />
<glyph unicode="j" horiz-adv-x="231" d="M195 744Q221 744 233 735T246 704Q245 680 237 664T214 639T175 630Q150 630 137 640T124 671Q125 695 132 711T154 735T195 744ZM213 539L123 -26Q113 -89 94 -132T43 -198T-40 -220Q-55 -220 -76 -218T-118 -209L-95
-125Q-83 -129 -73 -130T-54 -132Q-20 -132 -3 -105T21 -28L111 539H213Z" />
<glyph unicode="k" horiz-adv-x="489" d="M16 0L133 740H236L118 0H16ZM415 -10Q391 -10 367 2T317 43T257 117L144 273L167 381L292 216Q331 166 357 139T404 100T440 89Q445 89 450 89T460 90L450 -4Q441 -7 433 -8T415 -10ZM257 250L194 303Q232 329 263 355T319
411T364 474T404 548L507 538Q485 485 447 433T361 334T257 250Z" />
<glyph unicode="l" horiz-adv-x="258" d="M133 740H235L143 158Q141 147 140 137T138 117Q138 108 141 100T153 87T177 82Q188 82 200 84T226 90L223 8Q202 0 177 -5T125 -10Q77 -10 55 13T32 80Q32 91 33 103T36 127L133 740Z" />
<glyph unicode="m" horiz-adv-x="783" d="M678 -10Q652 -10 633 -1T602 26T591 69Q591 79 594 104T602 164T614 234T625 304T634 363T638 398Q638 426 623 443T572 460Q542 460 515 449T459 420Q460 416 460 408T459 394Q457 381 454 360T447 311T438 252T428
188T417 122T408 58T398 0H298Q302 30 307 64T319 136T330 208T341 276T350 334T356 376T358 397Q358 415 352 429T332 452T294 461Q268 461 241 451T184 423L117 0H16L101 539H194L186 492Q230 519 270 534T349 549Q392 549 417 532T453 486Q484 507 511 520T566
541T624 549Q666 549 692 535T732 496T745 439Q745 429 742 403T733 343T721 271T710 199T700 141T696 107Q696 93 703 86T724 78Q730 78 736 78T749 82L746 3Q732 -3 714 -6T678 -10Z" />
<glyph unicode="n" horiz-adv-x="526" d="M101 539H194L187 491Q217 510 246 522T305 542T367 549Q427 549 457 519T488 437Q488 427 485 401T476 340T464 268T453 196T444 138T440 106Q440 92 446 85T466 78Q472 78 478 78T492 82L488 3Q474 -3 456 -6T421 -10Q396
-10 376 -1T345 26T334 67Q334 78 337 103T346 163T358 234T369 304T378 363T381 399Q381 427 366 444T314 461Q292 461 271 456T228 442T184 421L117 0H16L101 539Z" />
<glyph unicode="o" horiz-adv-x="508" d="M233 -10Q165 -10 120 11T52 75T28 184Q28 229 34 273T53 358T86 433T133 494T196 535T275 549Q339 549 384 528T452 464T476 353Q476 306 470 261T452 176T419 101T373 42T311 4T233 -10ZM228 71Q254 71 275 83T312 116T340
165T360 225T371 292T375 361Q375 416 349 442T277 469Q251 469 230 457T192 422T163 372T143 311T132 247T128 184Q128 125 153 98T228 71Z" />
<glyph unicode="p" horiz-adv-x="520" d="M-17 -210L102 542H193L189 491Q227 516 265 532T349 549Q398 549 430 528T479 467T496 366Q496 289 478 221T423 101T334 20T215 -9Q186 -9 162 -6T118 2L84 -210H-17ZM207 70Q250 70 285 93T344 154T380 242T393 342Q393
402 371 431T303 460Q274 460 244 449T184 417L131 82Q146 77 165 74T207 70Z" />
<glyph unicode="q" horiz-adv-x="519" d="M498 523L381 -210H280L320 42Q285 17 251 4T177 -10Q128 -10 94 10T41 70T23 165Q23 222 34 278T69 383T128 469T211 527T319 549Q353 549 384 545T445 536T498 523ZM386 456Q371 460 351 464T306 468Q271 468 242 452T191
407T155 343T133 267T125 187Q125 152 136 128T169 90T217 77Q246 77 274 87T332 118L386 456Z" />
<glyph unicode="r" horiz-adv-x="368" d="M192 539L182 473Q213 500 239 516T290 541T340 549Q359 549 376 546T409 538L378 440Q362 445 345 447T312 450Q283 450 250 437T179 392L116 0H16L101 539H192Z" />
<glyph unicode="s" horiz-adv-x="436" d="M-13 23L13 103Q34 95 62 88T120 76T179 71Q221 71 247 80T285 106T297 144Q297 167 284 182T249 208T201 229T149 251T102 280T67 323T53 386Q53 423 66 453T107 504T175 537T273 549Q317 549 357 542T426 522L401 443Q381
450 358 455T311 464T263 468Q223 468 198 459T162 433T151 396Q151 374 164 360T199 335T247 315T299 293T347 264T382 222T395 160Q395 125 386 98T357 50T311 17T249 -3T172 -10Q115 -10 70 -1T-13 23Z" />
<glyph unicode="t" horiz-adv-x="351" d="M306 95L303 14Q269 2 237 -4T174 -10Q138 -10 112 1T71 36T56 101Q56 114 58 132T63 167L109 459H29L42 530L123 539L156 662H243L223 539H377L363 459H210L165 174Q163 165 163 157T162 141Q162 112 176 96T225 80Q244
80 264 84T306 95Z" />
<glyph unicode="u" horiz-adv-x="520" d="M154 -10Q95 -10 64 19T33 97Q33 108 35 126T41 175T53 253T72 371T99 539H200Q185 445 175 381T159 275T148 207T142 165T138 136Q138 109 154 93T203 76Q225 76 245 81T286 95T328 116L395 539H496Q476 418 464 340T444
216T434 149T430 120T429 110Q429 93 436 85T456 77Q460 77 467 78T481 82L478 10Q464 1 444 -4T408 -10Q377 -10 356 6T329 51Q299 31 271 18T214 -3T154 -10Z" />
<glyph unicode="v" horiz-adv-x="460" d="M239 -1H118L41 540L148 541L196 93Q236 172 266 231T316 333T349 411T367 475T375 539H481Q479 504 472 472T451 404T419 328T373 240T313 133T239 -1Z" />
<glyph unicode="w" horiz-adv-x="693" d="M516 0H401L361 388Q346 343 329 294T294 196T259 97T223 0H101L43 540L141 541L180 91Q204 163 228 232T276 372T323 518H435L471 92Q504 171 528 230T568 333T593 412T608 477T614 539H710Q709 502 702 465T681 385T644
288T590 163T516 0Z" />
<glyph unicode="x" horiz-adv-x="474" d="M395 539H498Q491 510 477 477T439 409T381 338T299 266L429 2L318 -3L227 212Q203 192 184 172T149 133T122 92T103 49T89 0H-15Q-7 39 8 76T47 148T106 219T191 291L66 538L177 545L266 339Q295 365 316 389T352 436T378
485T395 539Z" />
<glyph unicode="y" horiz-adv-x="466" d="M385 542L488 541Q483 496 470 446T435 341T388 229T331 114T268 -1T201 -112T135 -216L28 -209Q64 -160 98 -108T162 -2H127L38 542L145 544L212 78Q236 123 258 170T302 265T339 360T368 453T385 542Z" />
<glyph unicode="z" horiz-adv-x="468" d="M-4 0L7 73L334 456H74L88 539H473L458 461L134 82H420L407 0H-4Z" />
<glyph unicode="{" horiz-adv-x="316" d="M39 -100Q39 -58 50 -21T75 50T100 118T111 187Q111 205 104 217T76 229H62L74 307H89Q112 307 124 323T142 365T147 418Q147 445 144 471T140 532Q140 572 149 608T176 675T226 722T302 740H362L350 663H315Q289 663
272 652T246 622T232 581T228 538Q228 515 229 497T232 461T233 423Q233 389 225 358T200 303T154 268Q178 254 186 233T195 188Q195 153 185 120T163 56T140 -8T130 -74Q130 -91 135 -104T153 -125T186 -133H223L210 -210H148Q113 -210 89 -198T52 -160T39 -100Z"
/>
<glyph unicode="|" horiz-adv-x="206" d="M227 790L67 -210H-16L144 790H227Z" />
<glyph unicode="}" horiz-adv-x="316" d="M273 630Q273 587 263 550T238 480T213 414T202 346Q202 328 209 316T236 304H251L238 226H223Q201 226 189 210T171 168T166 117Q166 92 169 62T172 -7Q172 -43 164 -79T136 -144T87 -192T11 -210H-50L-37 -133H-4Q22
-133 38 -122T65 -92T79 -51T83 -7Q83 17 82 35T79 72T77 111Q77 144 85 175T111 231T156 265Q132 279 124 300T115 344Q115 382 125 414T148 477T171 539T181 604Q181 622 176 635T158 655T124 663H89L102 740H164Q199 740 223 728T260 690T273 630Z" />
<glyph unicode="~" horiz-adv-x="464" d="M400 246Q383 229 363 220T321 210Q291 210 270 224T229 257T189 290T141 305Q124 305 109 300T82 286T59 268L74 358Q82 366 93 374T121 387T155 393Q181 393 201 379T241 345T281 312T331 297Q355 297 375 307T414 336L400
246Z" />
<glyph unicode="&#xa0;" horiz-adv-x="268" />
<glyph unicode="&#xa1;" horiz-adv-x="229" d="M162 279L92 -199H-8L75 279H162ZM209 504Q208 480 202 463T180 436T140 426Q114 426 103 435T91 467Q92 485 96 499T108 523T129 539T161 545Q187 545 198 535T209 504Z" />
<glyph unicode="&#xa2;" horiz-adv-x="610" d="M234 -105L249 -3Q207 3 175 22T125 78T107 169Q107 238 122 300T167 413T240 496T338 540L355 643H435L419 547Q443 547 463 544T502 537T539 527L510 436Q491 442 473 446T435 452T394 454Q353 454 320 435T263
380T226 298T213 198Q213 143 243 113T336 83Q356 83 378 85T422 92T464 100L466 14Q442 6 407 1T329 -8L313 -105H234Z" />
<glyph unicode="&#xa3;" horiz-adv-x="611" d="M55 0L65 70Q102 101 131 132T176 199T193 279Q193 312 186 341T171 401T163 471Q163 516 176 554T213 621T269 669T339 699T419 710Q449 710 477 707T534 697T589 678L559 594Q523 608 490 613T420 618Q377 618
341 601T283 548T261 455Q261 427 268 399T282 342T289 287Q289 245 278 211T244 147T190 86H504L491 0H55ZM89 316L101 394H482L471 316H89Z" />
<glyph unicode="&#xa4;" horiz-adv-x="422" d="M65 103L22 160L90 224Q80 247 80 277Q81 302 89 324T112 365L65 429L125 486L176 417Q190 426 205 431T238 437Q254 437 268 432T293 417L367 486L409 429L341 365Q346 354 349 342T351 315Q351 289 342 266T319
224L367 160L306 103L254 173Q240 164 225 159T193 154Q177 154 163 159T139 173L65 103ZM204 218Q225 218 243 230T274 262T287 308Q287 336 271 354T228 373Q207 373 188 361T157 328T145 283Q144 255 160 237T204 218Z" />
<glyph unicode="&#xa5;" horiz-adv-x="611" d="M110 323L121 385H271L139 699L249 702L335 453L498 705L607 699L378 385H531L521 323H367L356 250H509L500 187H346L316 0H210L239 187H89L99 250H249L261 323H110Z" />
<glyph unicode="&#xa6;" horiz-adv-x="208" d="M163 391H81L145 790H228L163 391ZM49 190H132L67 -210H-15L49 190Z" />
<glyph unicode="&#xa7;" horiz-adv-x="486" d="M11 -81Q30 -96 51 -106T94 -117Q115 -117 131 -105T157 -73T167 -26Q167 9 156 45T130 121T99 203T73 293T62 395Q62 471 84 535T147 648T244 723T369 750Q389 750 410 748T451 741T488 729L454 633Q441 639 430
643T403 647Q365 647 344 618T323 542Q323 504 333 467T360 392T391 315T417 232T428 139Q428 79 414 25T371 -74T306 -152T223 -202T125 -220Q99 -220 73 -215T21 -199T-27 -173L11 -81ZM325 684Q266 670 226 631T164 533T143 403Q143 359 153 317T178 233T207
153T232 75T242 -3Q242 -36 231 -66T198 -120T142 -158Q184 -156 221 -134T287 -74T333 12T350 114Q350 159 340 201T315 284T285 365T260 447T249 532Q249 576 267 618T325 684Z" />
<glyph unicode="&#xa8;" horiz-adv-x="385" d="M352 638Q333 638 324 647T316 680Q318 711 331 725T369 740Q388 740 397 730T404 697Q402 667 389 653T352 638ZM167 638Q147 638 139 647T131 678Q134 710 146 725T184 740Q203 740 212 730T219 697Q218 666 205
652T167 638Z" />
<glyph unicode="&#xa9;" horiz-adv-x="657" d="M302 -10Q246 -10 200 6T121 53T70 132T52 242Q52 317 65 386T106 514T172 617T263 686T377 711Q434 711 480 695T560 648T611 569T630 459Q630 384 616 315T575 186T508 83T417 15T302 -10ZM325 159Q265 159 232
193T198 295Q198 367 222 421T288 507T381 538Q406 538 428 535T469 524L452 467Q434 472 417 474T379 477Q352 477 331 463T294 423T270 365T261 296Q261 271 271 253T299 225T341 215Q362 215 383 218T421 227L425 176Q405 169 379 164T325 159ZM307 30Q361 30
405 52T483 115T540 210T575 326T587 454Q587 511 572 551T528 618T460 658T373 671Q319 671 275 648T197 585T140 490T106 374T94 246Q94 190 109 149T152 82T219 43T307 30Z" />
<glyph unicode="&#xaa;" horiz-adv-x="361" d="M36 257L45 312H325L317 257H36ZM357 663Q349 615 343 579T333 516T325 472T321 445T319 434Q319 418 333 418Q335 418 339 419T348 422V373Q339 369 325 367T300 364Q282 364 269 370T249 392Q231 380 210 372T163
364Q124 364 96 389T68 468Q68 515 80 554T115 622T171 666T249 682Q268 682 288 680T326 673T357 663ZM135 477Q135 452 149 436T189 420Q203 420 219 425T248 438L278 625Q270 628 260 630T236 632Q216 632 198 619T166 583T144 533T135 477Z" />
<glyph unicode="&#xab;" horiz-adv-x="478" d="M181 18L16 210L37 334L263 523L253 409L85 271L204 122L181 18ZM402 18L237 210L258 334L484 523L474 409L306 271L425 122L402 18Z" />
<glyph unicode="&#xac;" horiz-adv-x="460" d="M61 345L75 429H434L394 173H311L337 345H61Z" />
<glyph unicode="&#xad;" horiz-adv-x="321" d="M36 242L51 333H290L274 242H36Z" />
<glyph unicode="&#xae;" horiz-adv-x="619" d="M317 209Q241 209 189 237T111 320T84 452Q84 528 97 594T137 715T201 809T286 871T390 893Q466 893 518 865T596 782T623 650Q623 574 609 508T569 387T505 293T420 231T317 209ZM319 247Q367 247 408 266T481 322T537
409T571 520T583 650Q583 715 561 761T496 831T386 855Q338 855 297 836T224 780T169 693T134 582T122 452Q122 387 144 341T211 271T319 247ZM219 388L272 725Q302 728 325 729T372 731Q430 731 457 711T485 644Q485 607 473 581T436 540T377 522L352 512Q340
512 331 512T313 513T295 514L274 388H219ZM347 555Q377 555 395 565T420 594T428 639Q428 663 415 672T370 682Q360 682 353 682T339 681T321 680L302 558Q315 557 325 556T347 555ZM452 385Q437 385 423 392T394 414T367 457T342 524L398 537Q409 505 421 485T445
454T468 444Q470 444 471 444T474 445L467 387Q464 386 460 386T452 385Z" />
<glyph unicode="&#xaf;" horiz-adv-x="385" d="M129 650L141 725H403L391 650H129Z" />
<glyph unicode="&#xb0;" horiz-adv-x="284" d="M170 446Q138 446 117 460T86 497T76 550Q76 582 85 612T112 667T155 706T210 720Q243 720 264 706T295 668T305 614Q305 582 296 552T269 498T226 460T170 446ZM180 515Q206 515 223 541T240 599Q240 621 231 635T200
650Q183 650 170 638T149 606T141 564Q141 543 151 529T180 515Z" />
<glyph unicode="&#xb1;" horiz-adv-x="461" d="M375 42H13L27 129H163L189 286H51L65 373H203L229 528H316L290 373H427L413 286H276L251 129H389L375 42Z" />
<glyph unicode="&#xb2;" horiz-adv-x="376" d="M61 369L66 411Q110 441 148 472T215 536T260 599T277 660Q277 683 263 696T223 709Q201 709 179 702T134 681L118 735Q137 747 158 755T203 768T250 773Q273 773 292 767T325 750T347 723T355 684Q355 647 340 613T298
547T239 483T170 419H350L342 369H61Z" />
<glyph unicode="&#xb3;" horiz-adv-x="359" d="M40 399L67 447Q88 433 114 426T170 419Q207 419 233 428T274 453T288 492Q288 513 280 526T253 545T205 552H142L150 598H217Q242 598 260 604T289 623T300 657Q300 685 279 700T218 716Q193 716 167 712T118 699L109
748Q127 756 147 762T191 770T237 773Q300 773 335 745T371 674Q371 635 351 612T299 575Q324 568 339 546T355 492Q355 460 341 436T302 396T244 372T172 364Q136 364 102 372T40 399Z" />
<glyph unicode="&#xb4;" horiz-adv-x="353" d="M152 596L284 790H387L232 596H152Z" />
<glyph unicode="&#xb5;" horiz-adv-x="523" d="M-16 -210L101 539H202Q190 460 180 400T164 295T153 220T145 168T140 134Q140 107 156 92T204 76Q225 76 245 81T287 95T331 116L397 539H498Q479 418 466 340T447 216T437 149T432 120T431 110Q431 93 438 85T458
77Q462 77 469 78T483 82L481 10Q466 1 446 -4T410 -10Q380 -10 360 5T334 48Q308 28 283 16T233 -3T182 -10Q159 -10 144 -2T121 23L84 -210H-16Z" />
<glyph unicode="&#xb6;" horiz-adv-x="565" d="M347 -210L498 740H575L425 -210H347ZM230 268L210 203Q162 211 129 236T78 301T61 393Q61 468 81 531T140 641T237 714T368 740H421L270 -210H193L329 653Q283 652 249 630T192 572T158 490T147 397Q147 361 157
334T186 290T230 268Z" />
<glyph unicode="&#xb7;" horiz-adv-x="196" d="M43 287Q44 308 51 325T73 353T112 363Q138 363 150 353T161 318Q160 302 156 289T144 265T123 248T92 242Q65 242 54 253T43 287Z" />
<glyph unicode="&#xb8;" horiz-adv-x="385" d="M44 -203L60 -137Q72 -143 84 -146T107 -150Q135 -150 152 -131T170 -75Q170 -52 163 -33T137 4L214 5Q229 -12 237 -36T245 -88Q245 -125 229 -156T186 -203T121 -220Q100 -220 82 -216T44 -203Z" />
<glyph unicode="&#xb9;" horiz-adv-x="339" d="M46 370L55 423H170L214 690L99 637L92 695L260 768H299L242 423H341L332 370H46Z" />
<glyph unicode="&#xba;" horiz-adv-x="341" d="M34 257L43 312H307L298 257H34ZM226 682Q265 682 293 672T336 639T352 581Q352 516 334 468T280 392T194 364Q155 364 127 375T83 408T68 466Q68 530 86 579T139 655T226 682ZM225 632Q206 632 190 620T161 585T142
534T135 471Q135 443 150 429T195 415Q214 415 230 427T258 462T277 513T284 575Q284 603 269 617T225 632Z" />
<glyph unicode="&#xbb;" horiz-adv-x="477" d="M3 129L168 276L51 419L75 523L240 334L219 210L-6 18L3 129ZM224 129L389 276L272 419L296 523L461 334L440 210L215 18L224 129Z" />
<glyph unicode="&#xbc;" horiz-adv-x="806" d="M292 562L301 615H416L460 882L345 829L338 887L506 960H545L488 615H587L578 562H292ZM228 -8L158 -3L648 733L719 728L228 -8ZM420 81L426 125L665 399L727 395L684 131H743L735 81H677L664 0H589L603 81H420ZM487
131H611L642 316L487 131Z" />
<glyph unicode="&#xbd;" horiz-adv-x="856" d="M292 562L301 615H416L460 882L345 829L338 887L506 960H545L488 615H587L578 562H292ZM228 -8L158 -3L648 733L719 728L228 -8ZM479 -1L484 41Q528 71 566 102T633 166T678 229T695 290Q695 313 681 326T641 339Q619
339 597 332T552 311L536 365Q555 377 576 385T621 398T668 403Q691 403 710 397T743 380T765 353T773 314Q773 277 758 243T716 177T657 113T588 49H768L760 -1H479Z" />
<glyph unicode="&#xbe;" horiz-adv-x="817" d="M285 591L312 639Q333 625 359 618T415 611Q452 611 478 620T519 645T533 684Q533 705 525 718T498 737T450 744H387L395 790H462Q487 790 505 796T534 815T545 849Q545 877 524 892T463 908Q438 908 412 904T363
891L354 940Q372 948 392 954T436 962T482 965Q545 965 580 937T616 866Q616 827 596 804T544 767Q569 760 584 738T600 684Q600 652 586 628T547 588T489 564T417 556Q381 556 347 564T285 591ZM239 -8L169 -3L659 733L730 728L239 -8ZM431 81L437 125L676 399L738
395L695 131H754L746 81H688L675 0H600L614 81H431ZM498 131H622L653 316L498 131Z" />
<glyph unicode="&#xbf;" horiz-adv-x="417" d="M283 276L267 158Q217 139 183 118T127 75T97 26T87 -31Q87 -61 99 -79T132 -107T181 -117Q219 -117 259 -104T341 -64L360 -148Q330 -169 295 -183T221 -205T147 -213Q112 -213 81 -204T27 -177T-11 -128T-25 -56Q-25
12 1 61T74 145T186 208L197 276H283ZM330 501Q329 477 322 460T299 432T260 422Q234 422 223 432T213 463Q213 487 220 504T242 531T282 541Q308 541 319 532T330 501Z" />
<glyph unicode="&#xc0;" horiz-adv-x="582" d="M-33 0L292 707H422L528 0H415L391 168H157L81 0H-33ZM190 253H386L343 612L190 253ZM334 745L244 923H341L412 745H334Z" />
<glyph unicode="&#xc1;" horiz-adv-x="582" d="M-33 0L292 707H422L528 0H415L391 168H157L81 0H-33ZM190 253H386L343 612L190 253ZM314 745L437 923H540L393 745H314Z" />
<glyph unicode="&#xc2;" horiz-adv-x="582" d="M-33 0L292 707H422L528 0H415L391 168H157L81 0H-33ZM190 253H386L343 612L190 253ZM209 745L336 923H449L517 745H438L383 873L289 745H209Z" />
<glyph unicode="&#xc3;" horiz-adv-x="582" d="M-33 0L292 707H422L528 0H415L391 168H157L81 0H-33ZM190 253H386L343 612L190 253ZM214 766Q214 773 215 784T219 816Q227 858 251 884T321 911Q342 911 358 901T387 878T414 854T445 843Q459 843 468 852T482
875T488 896Q490 906 490 910T491 915H546Q546 908 546 902T543 884Q537 829 511 799T439 768Q417 768 401 778T372 802T345 826T314 836Q298 836 288 823T275 799Q272 788 271 781T269 766H214Z" />
<glyph unicode="&#xc4;" horiz-adv-x="582" d="M-33 0L292 707H422L528 0H415L391 168H157L81 0H-33ZM190 253H386L343 612L190 253ZM461 778Q442 778 433 787T425 820Q427 851 440 865T478 880Q497 880 506 870T513 837Q511 807 498 793T461 778ZM276 778Q256
778 248 787T240 818Q243 850 255 865T293 880Q312 880 321 870T328 837Q327 806 314 792T276 778Z" />
<glyph unicode="&#xc5;" horiz-adv-x="582" d="M-33 0L292 707H422L528 0H415L391 168H157L81 0H-33ZM190 253H386L343 612L190 253ZM368 750Q328 750 306 769T283 825Q283 875 310 903T389 931Q430 931 452 912T474 856Q474 806 447 778T368 750ZM372 796Q395
796 407 811T420 853Q420 885 385 885Q362 885 350 870T337 828Q337 796 372 796Z" />
<glyph unicode="&#xc6;" horiz-adv-x="858" d="M347 0L384 243H224L80 0H-40L391 700H882L867 609H542L509 398H806L791 307H494L460 91H801L787 0H347ZM272 326H398L442 611L272 326Z" />
<glyph unicode="&#xc7;" horiz-adv-x="568" d="M328 -10Q236 -10 173 16T76 97T43 236Q43 343 68 430T139 580T251 676T400 710Q435 710 467 707T530 698T592 679L565 596Q540 604 514 609T461 616T405 619Q345 619 299 592T220 514T170 396T152 249Q152 189 175
152T241 98T347 81Q389 81 427 86T499 100L508 15Q467 2 423 -4T328 -10ZM174 -203L190 -137Q202 -143 214 -146T237 -150Q265 -150 282 -131T300 -75Q300 -52 293 -33T267 4L344 5Q359 -12 367 -36T375 -88Q375 -125 359 -156T316 -203T251 -220Q230 -220 212
-216T174 -203Z" />
<glyph unicode="&#xc8;" horiz-adv-x="536" d="M20 0L131 700H561L546 609H221L187 405H491L476 314H172L138 91H480L465 0H20ZM324 745L234 923H331L402 745H324Z" />
<glyph unicode="&#xc9;" horiz-adv-x="536" d="M20 0L131 700H561L546 609H221L187 405H491L476 314H172L138 91H480L465 0H20ZM304 745L427 923H530L383 745H304Z" />
<glyph unicode="&#xca;" horiz-adv-x="536" d="M20 0L131 700H561L546 609H221L187 405H491L476 314H172L138 91H480L465 0H20ZM199 745L326 923H439L507 745H428L373 873L279 745H199Z" />
<glyph unicode="&#xcb;" horiz-adv-x="536" d="M20 0L131 700H561L546 609H221L187 405H491L476 314H172L138 91H480L465 0H20ZM451 778Q432 778 423 787T415 820Q417 851 430 865T468 880Q487 880 496 870T503 837Q501 807 488 793T451 778ZM266 778Q246 778
238 787T230 818Q233 850 245 865T283 880Q302 880 311 870T318 837Q317 806 304 792T266 778Z" />
<glyph unicode="&#xcc;" horiz-adv-x="233" d="M20 0L131 700H236L124 0H20ZM161 745L71 923H168L239 745H161Z" />
<glyph unicode="&#xcd;" horiz-adv-x="233" d="M20 0L131 700H236L124 0H20ZM141 745L264 923H367L220 745H141Z" />
<glyph unicode="&#xce;" horiz-adv-x="233" d="M20 0L131 700H236L124 0H20ZM36 745L163 923H276L344 745H265L210 873L116 745H36Z" />
<glyph unicode="&#xcf;" horiz-adv-x="233" d="M20 0L131 700H236L124 0H20ZM288 778Q269 778 260 787T252 820Q254 851 267 865T305 880Q324 880 333 870T340 837Q338 807 325 793T288 778ZM103 778Q83 778 75 787T67 818Q70 850 82 865T120 880Q139 880 148
870T155 837Q154 806 141 792T103 778Z" />
<glyph unicode="&#xd0;" horiz-adv-x="641" d="M17 315L32 399H329L314 315H17ZM247 -10Q201 -10 165 -9T95 -5T27 -1L139 701Q193 706 239 708T332 710Q386 710 430 700T510 668T569 614T607 536T621 432Q621 328 595 246T520 106T402 20T247 -10ZM255 73Q301
73 341 88T413 132T467 204T502 304T515 430Q515 471 506 503T480 558T441 595T391 617T334 624Q315 624 296 624T260 622T231 620L144 77Q164 76 181 75T215 74T255 73Z" />
<glyph unicode="&#xd1;" horiz-adv-x="635" d="M20 0L132 702H230L459 165L544 700H638L526 -2H430L198 526L114 0H20ZM242 766Q242 773 243 784T247 816Q255 858 279 884T349 911Q370 911 386 901T415 878T442 854T473 843Q487 843 496 852T510 875T516 896Q518
906 518 910T519 915H574Q574 908 574 902T571 884Q565 829 539 799T467 768Q445 768 429 778T400 802T373 826T342 836Q326 836 316 823T303 799Q300 788 299 781T297 766H242Z" />
<glyph unicode="&#xd2;" horiz-adv-x="655" d="M302 -7Q180 -7 115 66T50 280Q50 341 59 396T87 498T133 584T197 650T278 692T376 707Q498 707 563 634T628 420Q628 360 619 305T591 202T545 116T482 50T400 8T302 -7ZM310 81Q347 81 377 94T430 131T471 187T499
257T516 338T522 425Q522 529 480 574T369 619Q332 619 302 606T248 569T207 513T179 443T163 362T157 275Q157 171 198 126T310 81ZM368 745L278 923H375L446 745H368Z" />
<glyph unicode="&#xd3;" horiz-adv-x="655" d="M302 -7Q180 -7 115 66T50 280Q50 341 59 396T87 498T133 584T197 650T278 692T376 707Q498 707 563 634T628 420Q628 360 619 305T591 202T545 116T482 50T400 8T302 -7ZM310 81Q347 81 377 94T430 131T471 187T499
257T516 338T522 425Q522 529 480 574T369 619Q332 619 302 606T248 569T207 513T179 443T163 362T157 275Q157 171 198 126T310 81ZM348 745L471 923H574L427 745H348Z" />
<glyph unicode="&#xd4;" horiz-adv-x="655" d="M302 -7Q180 -7 115 66T50 280Q50 341 59 396T87 498T133 584T197 650T278 692T376 707Q498 707 563 634T628 420Q628 360 619 305T591 202T545 116T482 50T400 8T302 -7ZM310 81Q347 81 377 94T430 131T471 187T499
257T516 338T522 425Q522 529 480 574T369 619Q332 619 302 606T248 569T207 513T179 443T163 362T157 275Q157 171 198 126T310 81ZM243 745L370 923H483L551 745H472L417 873L323 745H243Z" />
<glyph unicode="&#xd5;" horiz-adv-x="655" d="M302 -7Q180 -7 115 66T50 280Q50 341 59 396T87 498T133 584T197 650T278 692T376 707Q498 707 563 634T628 420Q628 360 619 305T591 202T545 116T482 50T400 8T302 -7ZM310 81Q347 81 377 94T430 131T471 187T499
257T516 338T522 425Q522 529 480 574T369 619Q332 619 302 606T248 569T207 513T179 443T163 362T157 275Q157 171 198 126T310 81ZM247 766Q247 773 248 784T252 816Q260 858 284 884T354 911Q375 911 391 901T420 878T447 854T478 843Q492 843 501 852T515 875T521
896Q523 906 523 910T524 915H579Q579 908 579 902T576 884Q570 829 544 799T472 768Q450 768 434 778T405 802T378 826T347 836Q331 836 321 823T308 799Q305 788 304 781T302 766H247Z" />
<glyph unicode="&#xd6;" horiz-adv-x="655" d="M302 -7Q180 -7 115 66T50 280Q50 341 59 396T87 498T133 584T197 650T278 692T376 707Q498 707 563 634T628 420Q628 360 619 305T591 202T545 116T482 50T400 8T302 -7ZM310 81Q347 81 377 94T430 131T471 187T499
257T516 338T522 425Q522 529 480 574T369 619Q332 619 302 606T248 569T207 513T179 443T163 362T157 275Q157 171 198 126T310 81ZM495 778Q476 778 467 787T459 820Q461 851 474 865T512 880Q531 880 540 870T547 837Q545 807 532 793T495 778ZM310 778Q290
778 282 787T274 818Q277 850 289 865T327 880Q346 880 355 870T362 837Q361 806 348 792T310 778Z" />
<glyph unicode="&#xd7;" horiz-adv-x="431" d="M80 100L31 161L166 309L81 454L146 515L231 371L362 515L411 454L278 306L360 164L295 100L213 246L80 100Z" />
<glyph unicode="&#xd8;" horiz-adv-x="654" d="M686 710L555 553L552 554L161 89L158 90L79 -6H-13L119 151L122 150L510 612L513 611L594 710H686ZM299 -8Q177 -8 113 67T48 281Q48 344 58 399T86 503T133 589T197 653T278 694T374 708Q497 708 561 633T626 418Q626
356 616 301T587 197T541 112T477 47T396 6T299 -8ZM308 80Q341 80 369 92T421 127T463 180T494 250T513 335T519 431Q519 529 477 574T369 620Q336 620 307 609T254 578T212 527T180 457T161 371T154 269Q154 171 197 126T308 80Z" />
<glyph unicode="&#xd9;" horiz-adv-x="628" d="M267 -10Q156 -10 99 32T42 157Q42 169 42 179T46 207L124 700H227L148 203Q139 143 174 111T283 78Q436 78 457 209L535 700H639L561 214Q543 100 471 45T267 -10ZM357 745L267 923H364L435 745H357Z" />
<glyph unicode="&#xda;" horiz-adv-x="628" d="M267 -10Q156 -10 99 32T42 157Q42 169 42 179T46 207L124 700H227L148 203Q139 143 174 111T283 78Q436 78 457 209L535 700H639L561 214Q543 100 471 45T267 -10ZM337 745L460 923H563L416 745H337Z" />
<glyph unicode="&#xdb;" horiz-adv-x="628" d="M267 -10Q156 -10 99 32T42 157Q42 169 42 179T46 207L124 700H227L148 203Q139 143 174 111T283 78Q436 78 457 209L535 700H639L561 214Q543 100 471 45T267 -10ZM232 745L359 923H472L540 745H461L406 873L312 745H232Z" />
<glyph unicode="&#xdc;" horiz-adv-x="628" d="M267 -10Q156 -10 99 32T42 157Q42 169 42 179T46 207L124 700H227L148 203Q139 143 174 111T283 78Q436 78 457 209L535 700H639L561 214Q543 100 471 45T267 -10ZM484 778Q465 778 456 787T448 820Q450 851 463
865T501 880Q520 880 529 870T536 837Q534 807 521 793T484 778ZM299 778Q279 778 271 787T263 818Q266 850 278 865T316 880Q335 880 344 870T351 837Q350 806 337 792T299 778Z" />
<glyph unicode="&#xdd;" horiz-adv-x="536" d="M176 0L219 269L68 700L183 703L286 352Q328 399 358 439T410 517T445 591T470 667Q473 677 475 685T480 704L594 700Q592 691 590 682T584 663Q572 626 557 591T520 519T471 445T407 363T323 269L278 0H176ZM295
745L418 923H521L374 745H295Z" />
<glyph unicode="&#xde;" horiz-adv-x="596" d="M20 0L132 700H236L223 618Q253 619 274 620T310 621T337 622Q405 622 452 609T530 570T573 508T587 425Q587 352 568 298T510 207T415 153T284 135Q260 135 240 135T198 136T147 139L124 0H20ZM278 221Q329 221
367 232T431 267T469 327T481 411Q481 449 467 477T419 520T331 536Q319 536 308 536T284 535T252 533T209 530L161 225Q185 224 202 223T237 222T278 221Z" />
<glyph unicode="&#xdf;" horiz-adv-x="616" d="M38 -29L108 414H29L42 486L122 496L126 523Q139 600 171 650T259 725T399 750Q482 750 530 716T578 617Q578 579 567 552T530 506T464 469Q424 454 401 442T367 416T357 384Q357 366 367 354T403 330T470 303Q514
288 541 268T582 221T596 160Q596 105 570 68T493 10T368 -10Q338 -10 308 -6T248 5T195 22L218 98Q241 89 267 83T322 74T374 70Q428 70 463 92T498 150Q498 168 489 181T457 206T397 231Q352 247 322 266T277 311T262 373Q262 433 295 467T393 528Q427 541 446
553T473 580T482 611Q482 629 472 641T443 660T393 666Q343 666 309 649T254 596T224 508L137 -40Q123 -128 87 -174T-16 -220Q-38 -220 -59 -217T-100 -205L-77 -124Q-65 -128 -55 -129T-35 -131Q-3 -131 14 -104T38 -29Z" />
<glyph unicode="&#xe0;" horiz-adv-x="524" d="M418 -10Q399 -10 383 -4T355 14T336 42Q314 27 290 15T238 -3T182 -10Q134 -10 99 11T44 73T25 176Q25 293 61 376T164 504T322 549Q345 549 370 547T418 540T463 529T501 516Q486 419 475 351T457 237T445 165T439
125T437 110Q437 94 443 87T463 79Q470 79 476 80T489 82L485 4Q472 -2 455 -6T418 -10ZM333 111L387 452Q372 461 352 464T310 467Q258 467 217 431T153 334T129 193Q129 136 155 107T224 78Q242 78 261 82T300 94T333 111ZM290 596L197 790H294L368 596H290Z"
/>
<glyph unicode="&#xe1;" horiz-adv-x="524" d="M418 -10Q399 -10 383 -4T355 14T336 42Q314 27 290 15T238 -3T182 -10Q134 -10 99 11T44 73T25 176Q25 293 61 376T164 504T322 549Q345 549 370 547T418 540T463 529T501 516Q486 419 475 351T457 237T445 165T439
125T437 110Q437 94 443 87T463 79Q470 79 476 80T489 82L485 4Q472 -2 455 -6T418 -10ZM333 111L387 452Q372 461 352 464T310 467Q258 467 217 431T153 334T129 193Q129 136 155 107T224 78Q242 78 261 82T300 94T333 111ZM266 596L398 790H501L346 596H266Z"
/>
<glyph unicode="&#xe2;" horiz-adv-x="524" d="M418 -10Q399 -10 383 -4T355 14T336 42Q314 27 290 15T238 -3T182 -10Q134 -10 99 11T44 73T25 176Q25 293 61 376T164 504T322 549Q345 549 370 547T418 540T463 529T501 516Q486 419 475 351T457 237T445 165T439
125T437 110Q437 94 443 87T463 79Q470 79 476 80T489 82L485 4Q472 -2 455 -6T418 -10ZM333 111L387 452Q372 461 352 464T310 467Q258 467 217 431T153 334T129 193Q129 136 155 107T224 78Q242 78 261 82T300 94T333 111ZM159 596L293 790H405L476 596H394L340
735L241 596H159Z" />
<glyph unicode="&#xe3;" horiz-adv-x="524" d="M418 -10Q399 -10 383 -4T355 14T336 42Q314 27 290 15T238 -3T182 -10Q134 -10 99 11T44 73T25 176Q25 293 61 376T164 504T322 549Q345 549 370 547T418 540T463 529T501 516Q486 419 475 351T457 237T445 165T439
125T437 110Q437 94 443 87T463 79Q470 79 476 80T489 82L485 4Q472 -2 455 -6T418 -10ZM333 111L387 452Q372 461 352 464T310 467Q258 467 217 431T153 334T129 193Q129 136 155 107T224 78Q242 78 261 82T300 94T333 111ZM163 602Q163 609 164 620T168 652Q176
694 200 720T270 747Q291 747 307 737T336 714T363 690T394 679Q408 679 417 688T431 711T437 732Q439 742 439 746T440 751H495Q495 744 495 738T492 720Q486 665 460 635T388 604Q366 604 350 614T321 638T294 662T263 672Q247 672 237 659T224 635Q221 624 220
617T218 602H163Z" />
<glyph unicode="&#xe4;" horiz-adv-x="524" d="M418 -10Q399 -10 383 -4T355 14T336 42Q314 27 290 15T238 -3T182 -10Q134 -10 99 11T44 73T25 176Q25 293 61 376T164 504T322 549Q345 549 370 547T418 540T463 529T501 516Q486 419 475 351T457 237T445 165T439
125T437 110Q437 94 443 87T463 79Q470 79 476 80T489 82L485 4Q472 -2 455 -6T418 -10ZM333 111L387 452Q372 461 352 464T310 467Q258 467 217 431T153 334T129 193Q129 136 155 107T224 78Q242 78 261 82T300 94T333 111ZM415 638Q396 638 387 647T379 680Q381
711 394 725T432 740Q451 740 460 730T467 697Q465 667 452 653T415 638ZM230 638Q210 638 202 647T194 678Q197 710 209 725T247 740Q266 740 275 730T282 697Q281 666 268 652T230 638Z" />
<glyph unicode="&#xe5;" horiz-adv-x="524" d="M418 -10Q399 -10 383 -4T355 14T336 42Q314 27 290 15T238 -3T182 -10Q134 -10 99 11T44 73T25 176Q25 293 61 376T164 504T322 549Q345 549 370 547T418 540T463 529T501 516Q486 419 475 351T457 237T445 165T439
125T437 110Q437 94 443 87T463 79Q470 79 476 80T489 82L485 4Q472 -2 455 -6T418 -10ZM333 111L387 452Q372 461 352 464T310 467Q258 467 217 431T153 334T129 193Q129 136 155 107T224 78Q242 78 261 82T300 94T333 111ZM322 604Q282 604 260 623T237 679Q237
729 264 757T343 785Q384 785 406 766T428 710Q428 660 401 632T322 604ZM326 650Q349 650 361 665T374 707Q374 739 339 739Q316 739 304 724T291 682Q291 650 326 650Z" />
<glyph unicode="&#xe6;" horiz-adv-x="812" d="M178 -10Q106 -10 65 37T24 172Q24 256 44 325T100 444T184 521T291 549Q321 549 347 541T395 518L399 545H491L478 457Q505 502 552 525T658 549Q727 549 765 516T803 425Q803 352 743 302T573 234Q533 226 493
224T420 225L425 293Q455 292 485 293T546 302Q620 317 661 343T702 411Q702 440 683 454T622 469Q583 469 551 449T495 392T458 309T445 208Q445 167 462 137T513 91T593 75Q619 75 643 79T690 90T739 107L751 26Q726 14 697 7T639 -5T579 -9Q517 -9 477 16T420
84L405 -3H313L320 36Q300 22 277 12T229 -4T178 -10ZM224 71Q251 71 279 80T330 105L385 447Q367 460 348 464T307 469Q273 469 242 448T185 389T144 299T129 187Q129 148 141 122T174 84T224 71Z" />
<glyph unicode="&#xe7;" horiz-adv-x="451" d="M231 -10Q163 -10 118 13T49 78T25 180Q25 261 44 328T101 445T193 522T314 549Q340 549 365 547T415 540T462 528L434 443Q399 453 370 456T311 459Q271 459 238 439T180 383T141 299T127 198Q127 160 143 133T189
93T258 79Q282 79 303 80T344 86T385 95L395 15Q372 8 346 2T290 -7T231 -10ZM100 -203L116 -137Q128 -143 140 -146T163 -150Q191 -150 208 -131T226 -75Q226 -52 219 -33T193 4L270 5Q285 -12 293 -36T301 -88Q301 -125 285 -156T242 -203T177 -220Q156 -220
138 -216T100 -203Z" />
<glyph unicode="&#xe8;" horiz-adv-x="486" d="M111 295Q138 293 167 295T226 302Q300 314 341 340T383 411Q383 440 365 454T309 469Q256 469 215 437T151 347T128 211Q128 166 142 136T185 91T256 76Q278 76 303 79T356 90T412 109L427 26Q385 9 336 0T239 -10Q171
-10 124 15T52 87T27 201Q27 276 47 340T105 450T200 523T328 549Q374 549 409 534T463 492T483 425Q483 352 422 302T251 233Q211 226 174 225T104 225L111 295ZM293 596L200 790H297L371 596H293Z" />
<glyph unicode="&#xe9;" horiz-adv-x="486" d="M111 295Q138 293 167 295T226 302Q300 314 341 340T383 411Q383 440 365 454T309 469Q256 469 215 437T151 347T128 211Q128 166 142 136T185 91T256 76Q278 76 303 79T356 90T412 109L427 26Q385 9 336 0T239 -10Q171
-10 124 15T52 87T27 201Q27 276 47 340T105 450T200 523T328 549Q374 549 409 534T463 492T483 425Q483 352 422 302T251 233Q211 226 174 225T104 225L111 295ZM269 596L401 790H504L349 596H269Z" />
<glyph unicode="&#xea;" horiz-adv-x="486" d="M111 295Q138 293 167 295T226 302Q300 314 341 340T383 411Q383 440 365 454T309 469Q256 469 215 437T151 347T128 211Q128 166 142 136T185 91T256 76Q278 76 303 79T356 90T412 109L427 26Q385 9 336 0T239 -10Q171
-10 124 15T52 87T27 201Q27 276 47 340T105 450T200 523T328 549Q374 549 409 534T463 492T483 425Q483 352 422 302T251 233Q211 226 174 225T104 225L111 295ZM162 596L296 790H408L479 596H397L343 735L244 596H162Z" />
<glyph unicode="&#xeb;" horiz-adv-x="486" d="M111 295Q138 293 167 295T226 302Q300 314 341 340T383 411Q383 440 365 454T309 469Q256 469 215 437T151 347T128 211Q128 166 142 136T185 91T256 76Q278 76 303 79T356 90T412 109L427 26Q385 9 336 0T239 -10Q171
-10 124 15T52 87T27 201Q27 276 47 340T105 450T200 523T328 549Q374 549 409 534T463 492T483 425Q483 352 422 302T251 233Q211 226 174 225T104 225L111 295ZM418 638Q399 638 390 647T382 680Q384 711 397 725T435 740Q454 740 463 730T470 697Q468 667 455
653T418 638ZM233 638Q213 638 205 647T197 678Q200 710 212 725T250 740Q269 740 278 730T285 697Q284 666 271 652T233 638Z" />
<glyph unicode="&#xec;" horiz-adv-x="221" d="M117 0H16L101 539H202L117 0ZM134 596L41 790H138L212 596H134Z" />
<glyph unicode="&#xed;" horiz-adv-x="221" d="M117 0H16L101 539H202L117 0ZM110 596L242 790H345L190 596H110Z" />
<glyph unicode="&#xee;" horiz-adv-x="221" d="M117 0H16L101 539H202L117 0ZM3 596L137 790H249L320 596H238L184 735L85 596H3Z" />
<glyph unicode="&#xef;" horiz-adv-x="221" d="M117 0H16L101 539H202L117 0ZM259 638Q240 638 231 647T223 680Q225 711 238 725T276 740Q295 740 304 730T311 697Q309 667 296 653T259 638ZM74 638Q54 638 46 647T38 678Q41 710 53 725T91 740Q110 740 119 730T126
697Q125 666 112 652T74 638Z" />
<glyph unicode="&#xf0;" horiz-adv-x="535" d="M431 412Q405 436 376 446T314 457Q281 457 252 444T201 406T162 348T137 274T128 188Q128 159 134 137T154 99T187 76T229 68Q261 68 287 81T334 123T372 202T403 326Q411 370 414 405T417 474Q417 537 395 578T325
639T204 660Q179 660 161 658T126 654T92 648V716Q123 722 154 726T219 731Q288 731 343 715T438 665T499 579T520 456Q520 423 517 387T505 308Q491 223 466 163T405 64T324 9T222 -9Q182 -9 147 2T85 38T43 102T28 195Q28 249 40 299T74 391T129 465T204 514T298
532Q324 532 350 527T400 513T445 486L431 412ZM218 556H112L341 678L337 681L445 737H556L390 651L394 648L218 556Z" />
<glyph unicode="&#xf1;" horiz-adv-x="526" d="M101 539H194L187 491Q217 510 246 522T305 542T367 549Q427 549 457 519T488 437Q488 427 485 401T476 340T464 268T453 196T444 138T440 106Q440 92 446 85T466 78Q472 78 478 78T492 82L488 3Q474 -3 456 -6T421
-10Q396 -10 376 -1T345 26T334 67Q334 78 337 103T346 163T358 234T369 304T378 363T381 399Q381 427 366 444T314 461Q292 461 271 456T228 442T184 421L117 0H16L101 539ZM155 602Q155 609 156 620T160 652Q168 694 192 720T262 747Q283 747 299 737T328 714T355
690T386 679Q400 679 409 688T423 711T429 732Q431 742 431 746T432 751H487Q487 744 487 738T484 720Q478 665 452 635T380 604Q358 604 342 614T313 638T286 662T255 672Q239 672 229 659T216 635Q213 624 212 617T210 602H155Z" />
<glyph unicode="&#xf2;" horiz-adv-x="520" d="M233 -10Q165 -10 120 11T52 75T28 184Q28 229 34 273T53 358T86 433T133 494T196 535T275 549Q339 549 384 528T452 464T476 353Q476 306 470 261T452 176T419 101T373 42T311 4T233 -10ZM228 71Q254 71 275 83T312
116T340 165T360 225T371 292T375 361Q375 416 349 442T277 469Q251 469 230 457T192 422T163 372T143 311T132 247T128 184Q128 125 153 98T228 71ZM276 596L183 790H280L354 596H276Z" />
<glyph unicode="&#xf3;" horiz-adv-x="520" d="M233 -10Q165 -10 120 11T52 75T28 184Q28 229 34 273T53 358T86 433T133 494T196 535T275 549Q339 549 384 528T452 464T476 353Q476 306 470 261T452 176T419 101T373 42T311 4T233 -10ZM228 71Q254 71 275 83T312
116T340 165T360 225T371 292T375 361Q375 416 349 442T277 469Q251 469 230 457T192 422T163 372T143 311T132 247T128 184Q128 125 153 98T228 71ZM252 596L384 790H487L332 596H252Z" />
<glyph unicode="&#xf4;" horiz-adv-x="520" d="M233 -10Q165 -10 120 11T52 75T28 184Q28 229 34 273T53 358T86 433T133 494T196 535T275 549Q339 549 384 528T452 464T476 353Q476 306 470 261T452 176T419 101T373 42T311 4T233 -10ZM228 71Q254 71 275 83T312
116T340 165T360 225T371 292T375 361Q375 416 349 442T277 469Q251 469 230 457T192 422T163 372T143 311T132 247T128 184Q128 125 153 98T228 71ZM145 596L279 790H391L462 596H380L326 735L227 596H145Z" />
<glyph unicode="&#xf5;" horiz-adv-x="520" d="M233 -10Q165 -10 120 11T52 75T28 184Q28 229 34 273T53 358T86 433T133 494T196 535T275 549Q339 549 384 528T452 464T476 353Q476 306 470 261T452 176T419 101T373 42T311 4T233 -10ZM228 71Q254 71 275 83T312
116T340 165T360 225T371 292T375 361Q375 416 349 442T277 469Q251 469 230 457T192 422T163 372T143 311T132 247T128 184Q128 125 153 98T228 71ZM149 602Q149 609 150 620T154 652Q162 694 186 720T256 747Q277 747 293 737T322 714T349 690T380 679Q394 679
403 688T417 711T423 732Q425 742 425 746T426 751H481Q481 744 481 738T478 720Q472 665 446 635T374 604Q352 604 336 614T307 638T280 662T249 672Q233 672 223 659T210 635Q207 624 206 617T204 602H149Z" />
<glyph unicode="&#xf6;" horiz-adv-x="520" d="M233 -10Q165 -10 120 11T52 75T28 184Q28 229 34 273T53 358T86 433T133 494T196 535T275 549Q339 549 384 528T452 464T476 353Q476 306 470 261T452 176T419 101T373 42T311 4T233 -10ZM228 71Q254 71 275 83T312
116T340 165T360 225T371 292T375 361Q375 416 349 442T277 469Q251 469 230 457T192 422T163 372T143 311T132 247T128 184Q128 125 153 98T228 71ZM401 638Q382 638 373 647T365 680Q367 711 380 725T418 740Q437 740 446 730T453 697Q451 667 438 653T401 638ZM216
638Q196 638 188 647T180 678Q183 710 195 725T233 740Q252 740 261 730T268 697Q267 666 254 652T216 638Z" />
<glyph unicode="&#xf7;" horiz-adv-x="462" d="M156 110Q157 131 163 144T183 164T216 171Q238 171 249 163T259 137Q258 103 243 89T198 75Q176 75 166 83T156 110ZM215 473Q216 493 222 507T241 528T274 535Q297 535 307 527T317 500Q316 466 302 452T257 438Q234
438 224 446T215 473ZM47 261L62 350H425L410 261H47Z" />
<glyph unicode="&#xf8;" horiz-adv-x="508" d="M447 549H524L425 426L422 429L138 72L135 74L68 -10H-9L93 117L96 115L387 478L389 477L447 549ZM238 -10Q170 -10 125 11T57 75T33 184Q33 229 39 273T58 358T90 433T137 494T200 535T280 549Q344 549 389 528T457
464T481 353Q481 306 475 261T456 176T424 101T378 42T316 4T238 -10ZM235 71Q261 72 281 84T318 117T346 166T365 226T376 293T380 361Q379 416 353 443T279 469Q253 469 232 456T194 419T166 367T147 305T136 239T133 176Q134 120 161 95T235 71Z" />
<glyph unicode="&#xf9;" horiz-adv-x="520" d="M154 -10Q95 -10 64 19T33 97Q33 108 35 126T41 175T53 253T72 371T99 539H200Q185 445 175 381T159 275T148 207T142 165T138 136Q138 109 154 93T203 76Q225 76 245 81T286 95T328 116L395 539H496Q476 418 464
340T444 216T434 149T430 120T429 110Q429 93 436 85T456 77Q460 77 467 78T481 82L478 10Q464 1 444 -4T408 -10Q377 -10 356 6T329 51Q299 31 271 18T214 -3T154 -10ZM278 596L185 790H282L356 596H278Z" />
<glyph unicode="&#xfa;" horiz-adv-x="520" d="M154 -10Q95 -10 64 19T33 97Q33 108 35 126T41 175T53 253T72 371T99 539H200Q185 445 175 381T159 275T148 207T142 165T138 136Q138 109 154 93T203 76Q225 76 245 81T286 95T328 116L395 539H496Q476 418 464
340T444 216T434 149T430 120T429 110Q429 93 436 85T456 77Q460 77 467 78T481 82L478 10Q464 1 444 -4T408 -10Q377 -10 356 6T329 51Q299 31 271 18T214 -3T154 -10ZM254 596L386 790H489L334 596H254Z" />
<glyph unicode="&#xfb;" horiz-adv-x="520" d="M154 -10Q95 -10 64 19T33 97Q33 108 35 126T41 175T53 253T72 371T99 539H200Q185 445 175 381T159 275T148 207T142 165T138 136Q138 109 154 93T203 76Q225 76 245 81T286 95T328 116L395 539H496Q476 418 464
340T444 216T434 149T430 120T429 110Q429 93 436 85T456 77Q460 77 467 78T481 82L478 10Q464 1 444 -4T408 -10Q377 -10 356 6T329 51Q299 31 271 18T214 -3T154 -10ZM147 596L281 790H393L464 596H382L328 735L229 596H147Z" />
<glyph unicode="&#xfc;" horiz-adv-x="520" d="M154 -10Q95 -10 64 19T33 97Q33 108 35 126T41 175T53 253T72 371T99 539H200Q185 445 175 381T159 275T148 207T142 165T138 136Q138 109 154 93T203 76Q225 76 245 81T286 95T328 116L395 539H496Q476 418 464
340T444 216T434 149T430 120T429 110Q429 93 436 85T456 77Q460 77 467 78T481 82L478 10Q464 1 444 -4T408 -10Q377 -10 356 6T329 51Q299 31 271 18T214 -3T154 -10ZM403 638Q384 638 375 647T367 680Q369 711 382 725T420 740Q439 740 448 730T455 697Q453
667 440 653T403 638ZM218 638Q198 638 190 647T182 678Q185 710 197 725T235 740Q254 740 263 730T270 697Q269 666 256 652T218 638Z" />
<glyph unicode="&#xfd;" horiz-adv-x="461" d="M385 542L488 541Q483 496 470 446T435 341T388 229T331 114T268 -1T201 -112T135 -216L28 -209Q64 -160 98 -108T162 -2H127L38 542L145 544L212 78Q236 123 258 170T302 265T339 360T368 453T385 542ZM222 596L354
790H457L302 596H222Z" />
<glyph unicode="&#xfe;" horiz-adv-x="520" d="M-17 -210L133 740H234L195 491Q230 516 267 532T353 549Q424 549 460 503T496 366Q496 289 478 221T423 101T334 20T215 -9Q186 -9 162 -6T118 2L84 -210H-17ZM207 71Q250 71 285 93T344 154T380 241T393 340Q393
401 371 430T303 459Q274 459 244 448T184 416L131 83Q146 78 165 75T207 71Z" />
<glyph unicode="&#xff;" horiz-adv-x="461" d="M385 542L488 541Q483 496 470 446T435 341T388 229T331 114T268 -1T201 -112T135 -216L28 -209Q64 -160 98 -108T162 -2H127L38 542L145 544L212 78Q236 123 258 170T302 265T339 360T368 453T385 542ZM371 638Q352
638 343 647T335 680Q337 711 350 725T388 740Q407 740 416 730T423 697Q421 667 408 653T371 638ZM186 638Q166 638 158 647T150 678Q153 710 165 725T203 740Q222 740 231 730T238 697Q237 666 224 652T186 638Z" />
<glyph unicode="&#x2013;" horiz-adv-x="393" d="M14 246L28 330H383L369 246H14Z" />
<glyph unicode="&#x2014;" horiz-adv-x="734" d="M7 246L21 330H732L717 246H7Z" />
<glyph unicode="&#x2018;" horiz-adv-x="186" d="M59 430Q66 485 78 532T110 620T158 700L232 691Q209 648 192 608T165 525T149 430H59Z" />
<glyph unicode="&#x2019;" horiz-adv-x="186" d="M218 700Q212 645 200 598T168 510T120 430L45 439Q70 482 86 522T112 605T128 700H218Z" />
<glyph unicode="&#x201a;" horiz-adv-x="186" d="M110 50Q104 -5 92 -52T60 -140T12 -220L-63 -211Q-38 -168 -22 -128T4 -45T20 50H110Z" />
<glyph unicode="&#x201c;" horiz-adv-x="350" d="M59 430Q66 485 78 532T110 620T158 700L232 691Q209 648 192 608T165 525T149 430H59ZM224 430Q231 485 243 532T275 620T323 700L397 691Q374 648 357 608T330 525T314 430H224Z" />
<glyph unicode="&#x201d;" horiz-adv-x="350" d="M218 700Q212 645 200 598T168 510T120 430L45 439Q70 482 86 522T112 605T128 700H218ZM383 700Q377 645 365 598T333 510T285 430L210 439Q235 482 251 522T277 605T293 700H383Z" />
<glyph unicode="&#x201e;" horiz-adv-x="350" d="M110 50Q104 -5 92 -52T60 -140T12 -220L-63 -211Q-38 -168 -22 -128T4 -45T20 50H110ZM275 50Q269 -5 257 -52T225 -140T177 -220L102 -211Q127 -168 143 -128T169 -45T185 50H275Z" />
<glyph unicode="&#x2022;" horiz-adv-x="335" d="M152 191Q124 191 101 205T66 242T53 295Q53 334 71 367T122 422T193 444Q223 444 245 430T279 392T292 338Q292 300 274 267T223 212T152 191Z" />
<glyph unicode="&#x2039;" horiz-adv-x="258" d="M181 18L16 210L37 334L263 523L253 409L85 271L204 122L181 18Z" />
<glyph unicode="&#x203a;" horiz-adv-x="258" d="M3 129L168 276L51 419L75 523L240 334L219 210L-6 18L3 129Z" />
</font>
</defs>
</svg>
